HIERARCHY
ROOT Hips
{
  OFFSET 62.1483 96.9969 23.092
  CHANNELS 6 Xposition Yposition Zposition Zrotation Xrotation Yrotation
  JOINT spine
  {
    OFFSET 0 7.96568 0.458067
    CHANNELS 3 Zrotation Xrotation Yrotation
    JOINT spine1
    {
      OFFSET 0 10.2431 0
      CHANNELS 3 Zrotation Xrotation Yrotation
      JOINT spine2
      {
        OFFSET 0 9.81475 0
        CHANNELS 3 Zrotation Xrotation Yrotation
        JOINT Neck
        {
          OFFSET 0 25.1986 1.20138
          CHANNELS 3 Zrotation Xrotation Yrotation
          JOINT Head
          {
            OFFSET 0 7.61315 0
            CHANNELS 3 Zrotation Xrotation Yrotation
            End Site
            {
              OFFSET 0 18.4281 -6.07733
            }
          }
        }
        JOINT RightShoulder
        {
          OFFSET -4.1327 10.5992 -0.575451
          CHANNELS 3 Zrotation Xrotation Yrotation
          JOINT RightArm
          {
            OFFSET 0 13.9018 0
            CHANNELS 3 Zrotation Xrotation Yrotation
            JOINT RightArmRoll
            {
              OFFSET 0 7.01789 0
              CHANNELS 3 Zrotation Xrotation Yrotation
              JOINT RightForeArm
              {
                OFFSET 0 20.4406 0
                CHANNELS 3 Zrotation Xrotation Yrotation
                JOINT RightForeArmRoll
                {
                  OFFSET 0 7.87515 0
                  CHANNELS 3 Zrotation Xrotation Yrotation
                  JOINT RightHand
                  {
                    OFFSET 0 15.8037 0
                    CHANNELS 3 Zrotation Xrotation Yrotation
                    End Site
                    {
                      OFFSET 0 0 0
                    }
                  }
                }
              }
            }
          }
        }
        JOINT LeftShoulder
        {
          OFFSET 4.1327 10.5992 -0.575451
          CHANNELS 3 Zrotation Xrotation Yrotation
          JOINT LeftArm
          {
            OFFSET 0 13.9018 0
            CHANNELS 3 Zrotation Xrotation Yrotation
            JOINT LeftArmRoll
            {
              OFFSET 0 7.01788 0
              CHANNELS 3 Zrotation Xrotation Yrotation
              JOINT LeftForeArm
              {
                OFFSET 0 20.4406 0
                CHANNELS 3 Zrotation Xrotation Yrotation
                JOINT LeftForeArmRoll
                {
                  OFFSET 0 7.87515 0
                  CHANNELS 3 Zrotation Xrotation Yrotation
                  JOINT LeftHand
                  {
                    OFFSET 0 15.8037 0
                    CHANNELS 3 Zrotation Xrotation Yrotation
                    End Site
                    {
                      OFFSET 0 0 0
                    }
                  }
                }
              }
            }
          }
        }
      }
    }
  }
  JOINT RightUpLeg
  {
    OFFSET -7.06048 -1.2947 -1.0861
    CHANNELS 3 Zrotation Xrotation Yrotation
    JOINT RightUpLegRoll
    {
      OFFSET 0 18.5308 0
      CHANNELS 3 Zrotation Xrotation Yrotation
      JOINT RightLeg
      {
        OFFSET 0 -22.9476 0
        CHANNELS 3 Zrotation Xrotation Yrotation
        JOINT RightLegRoll
        {
          OFFSET 0 23.0226 0
          CHANNELS 3 Zrotation Xrotation Yrotation
          JOINT RightFoot
          {
            OFFSET 0 19.1625 0
            CHANNELS 3 Zrotation Xrotation Yrotation
            JOINT RightToeBase
            {
              OFFSET 0 16.0188 0
              CHANNELS 3 Zrotation Xrotation Yrotation
              End Site
              {
                OFFSET 0.00678979 7.75782 -0.894206
              }
            }
          }
        }
      }
    }
  }
  JOINT LeftUpLeg
  {
    OFFSET 7.06048 -1.2947 -1.0861
    CHANNELS 3 Zrotation Xrotation Yrotation
    JOINT LeftUpLegRoll
    {
      OFFSET 0 18.5309 0
      CHANNELS 3 Zrotation Xrotation Yrotation
      JOINT LeftLeg
      {
        OFFSET 0 22.9475 0
        CHANNELS 3 Zrotation Xrotation Yrotation
        JOINT LeftLegRoll
        {
          OFFSET 0 23.2355 0
          CHANNELS 3 Zrotation Xrotation Yrotation
          JOINT LeftFoot
          {
            OFFSET 0 18.9496 0
            CHANNELS 3 Zrotation Xrotation Yrotation
            JOINT LeftToeBase
            {
              OFFSET 0 16.0188 0
              CHANNELS 3 Zrotation Xrotation Yrotation
              End Site
              {
                OFFSET -0.0304289 7.75782 -0.894207
              }
            }
          }
        }
      }
    }
  }
}
MOTION
Frames: 8
Frame Time: 0.00208333
62.4739 97.0046 21.7214 1.69975 -6.83244 2.3397 -0.257972 -0.0523817 -0.0321746 -0.511788 3.89804 -0.0268203 -0.512226 5.5431 -0.0182471 -8.42706 10.7594 2.3957 9.73745 13.5569 0.144106 66.941 -2.47766 -2.27932 109.974 21.6534 3.40325 1.99454e-006 5.27344e-006 3.92277e-006 7.24109 12.745 -1.79977 -8.23088e-007 5.68698e-006 -3.00746 8.02925 -4.95142 0.697663 -65.885 -4.81098 3.43738 -106.529 20.6499 2.62422 2.16968e-006 3.28232e-006 -1.20269e-006 -11.6856 12.7991 2.04922 7.29884e-006 -4.19779e-006 2.99999 -8.02887 -4.95143 -0.697672 173.758 -6.24503 5.21676 180 7.015e-015 178.735 178.646 7.50196 179.607 1.58977e-007 3.62128e-006 0.145945 -19.5427 68.8319 20.2631 8.13649 25.2327 -3.48774 -175.321 -3.23778 -1.49961 4.5067e-006 -1.99009e-005 -1.21917 -2.05605 -6.32635 0.0261449 -3.50878e-006 -6.58044e-007 -0.0800828 18.8394 68.0187 -19.5589 -8.1365 25.2327 3.48774 
62.4751 97.0054 21.7276 1.69996 -6.82985 2.33389 -0.258232 -0.0527165 -0.0326012 -0.511898 3.89738 -0.028145 -0.512321 5.54243 -0.0195714 -8.44613 10.7285 2.39224 9.75324 13.5325 0.139879 66.9417 -2.48017 -2.2807 109.981 21.645 3.46193 1.99454e-006 5.27344e-006 3.92277e-006 7.19411 12.721 -1.79355 -8.23087e-007 5.68698e-006 -3.00746 8.02925 -4.95142 0.697663 -65.8923 -4.80886 3.4367 -106.537 20.647 2.5443 2.16968e-006 3.28232e-006 -1.20269e-006 -11.6152 12.7533 2.03865 7.29884e-006 -4.19779e-006 2.99999 -8.02887 -4.95143 -0.697672 173.756 -6.24343 5.21821 180 7.015e-015 178.735 178.645 7.50057 179.607 1.58977e-007 3.62128e-006 0.145843 -19.5412 68.8303 20.2615 8.13649 25.2327 -3.48774 -175.318 -3.23767 -1.50687 4.5067e-006 -1.99009e-005 -1.21917 -2.06339 -6.32677 0.0256533 -3.50878e-006 -6.58044e-007 -0.079936 18.8376 68.0166 -19.557 -8.1365 25.2327 3.48774 
62.4809 97.0086 21.7357 1.70013 -6.82703 2.32808 -0.25854 -0.0531661 -0.0330579 -0.512066 3.89648 -0.0295487 -0.512471 5.54153 -0.0209739 -8.46454 10.699 2.38896 9.7684 13.5069 0.135981 66.9428 -2.48243 -2.28197 109.987 21.6368 3.51732 1.99454e-006 5.27344e-006 3.92277e-006 7.15006 12.6958 -1.78754 -8.23087e-007 5.68698e-006 -3.00746 8.02925 -4.95142 0.697663 -65.8992 -4.80644 3.43584 -106.545 20.6438 2.46528 2.16968e-006 3.28232e-006 -1.20269e-006 -11.5454 12.7074 2.02809 7.29884e-006 -4.19779e-006 2.99999 -8.02887 -4.95143 -0.697672 173.755 -6.24151 5.21966 180 7.015e-015 178.735 178.644 7.49928 179.608 1.58977e-007 3.62128e-006 0.145735 -19.5397 68.8286 20.2598 8.13649 25.2327 -3.48774 -175.314 -3.23726 -1.51403 4.5067e-006 -1.99009e-005 -1.21917 -2.07061 -6.32722 0.0251604 -3.50878e-006 -6.58044e-007 -0.0797861 18.836 68.0147 -19.5552 -8.1365 25.2327 3.48774 
62.4849 97.0079 21.7329 1.70027 -6.82405 2.32227 -0.258882 -0.0536961 -0.0335359 -0.512273 3.89543 -0.0310078 -0.512661 5.54047 -0.022431 -8.4825 10.6706 2.3858 9.78311 13.4805 0.132315 66.9441 -2.48451 -2.28317 109.992 21.6288 3.57041 1.99454e-006 5.27344e-006 3.92277e-006 7.10808 12.6699 -1.78169 -8.23087e-007 5.68698e-006 -3.00746 8.02925 -4.95142 0.697663 -65.9057 -4.80383 3.43485 -106.554 20.6402 2.38688 2.16968e-006 3.28232e-006 -1.20269e-006 -11.4761 12.6616 2.01753 7.29884e-006 -4.19779e-006 2.99999 -8.02887 -4.95143 -0.697672 173.753 -6.23936 5.22111 180 7.015e-015 178.735 178.643 7.49803 179.608 1.58977e-007 3.62128e-006 0.145623 -19.5381 68.8269 20.2582 8.13649 25.2327 -3.48774 -175.31 -3.23664 -1.52111 4.5067e-006 -1.99009e-005 -1.21917 -2.07773 -6.32769 0.0246667 -3.50878e-006 -6.58044e-007 -0.079634 18.8344 68.0128 -19.5535 -8.1365 25.2327 3.48774 
62.4732 97.0064 21.7322 1.70039 -6.82098 2.31645 -0.259243 -0.054272 -0.034026 -0.512503 3.89428 -0.0324985 -0.512873 5.53932 -0.0239195 -8.50019 10.6428 2.38271 9.79758 13.4536 0.128781 66.9455 -2.48649 -2.28433 109.997 21.6209 3.62219 1.99454e-006 5.27344e-006 3.92277e-006 7.06727 12.6435 -1.77592 -8.23087e-007 5.68698e-006 -3.00746 8.02925 -4.95142 0.697663 -65.9121 -4.8011 3.43379 -106.564 20.6365 2.30883 2.16968e-006 3.28232e-006 -1.20269e-006 -11.4071 12.6157 2.00698 7.29884e-006 -4.19779e-006 2.99999 -8.02887 -4.95143 -0.697672 173.752 -6.23709 5.22256 180 7.015e-015 178.735 178.642 7.49684 179.608 1.58977e-007 3.62128e-006 0.145509 -19.5366 68.8252 20.2565 8.13649 25.2327 -3.48774 -175.307 -3.2359 -1.52814 4.5067e-006 -1.99009e-005 -1.21917 -2.08482 -6.32817 0.0241725 -3.50878e-006 -6.58044e-007 -0.0794807 18.8328 68.011 -19.5518 -8.1365 25.2327 3.48774 
62.4657 97.0066 21.7333 1.70051 -6.81788 2.31064 -0.25961 -0.0548593 -0.0345192 -0.512739 3.89311 -0.0339971 -0.513091 5.53815 -0.0254157 -8.51782 10.6151 2.37964 9.81198 13.4266 0.125281 66.947 -2.48844 -2.28548 110.003 21.613 3.67364 1.99454e-006 5.27344e-006 3.92277e-006 7.02676 12.6169 -1.77018 -8.23087e-007 5.68698e-006 -3.00746 8.02925 -4.95142 0.697663 -65.9184 -4.79834 3.4327 -106.573 20.6327 2.23088 2.16968e-006 3.28232e-006 -1.20269e-006 -11.3381 12.5698 1.99644 7.29884e-006 -4.19779e-006 2.99999 -8.02887 -4.95143 -0.697672 173.75 -6.23478 5.22401 180 7.015e-015 178.735 178.641 7.49565 179.608 1.58977e-007 3.62128e-006 0.145395 -19.535 68.8235 20.2548 8.13649 25.2327 -3.48774 -175.303 -3.23513 -1.53517 4.5067e-006 -1.99009e-005 -1.21917 -2.09188 -6.32865 0.0236782 -3.50878e-006 -6.58044e-007 -0.079327 18.8313 68.0092 -19.5502 -8.1365 25.2327 3.48774 
62.4701 97.0011 21.7368 1.70064 -6.81483 2.30483 -0.259966 -0.0554237 -0.0350062 -0.512963 3.89198 -0.0354798 -0.513298 5.53703 -0.0268964 -8.53559 10.5871 2.37654 9.8265 13.3998 0.121716 66.9484 -2.49044 -2.28665 110.008 21.605 3.72573 1.99454e-006 5.27344e-006 3.92277e-006 6.98568 12.5906 -1.76439 -8.23087e-007 5.68698e-006 -3.00746 8.02925 -4.95142 0.697663 -65.9248 -4.79563 3.43166 -106.582 20.6289 2.15276 2.16968e-006 3.28232e-006 -1.20269e-006 -11.2691 12.5239 1.9859 7.29884e-006 -4.19779e-006 2.99999 -8.02887 -4.95143 -0.697672 173.749 -6.23254 5.22546 180 7.015e-015 178.735 178.64 7.49443 179.608 1.58977e-007 3.62128e-006 0.145282 -19.5334 68.8218 20.2531 8.13649 25.2327 -3.48774 -175.3 -3.23442 -1.54222 4.5067e-006 -1.99009e-005 -1.21917 -2.09898 -6.32912 0.0231842 -3.50878e-006 -6.58044e-007 -0.079174 18.8298 68.0073 -19.5485 -8.1365 25.2327 3.48774 
62.475 97.0027 21.7392 1.70079 -6.8119 2.29901 -0.260299 -0.0559307 -0.0354782 -0.513159 3.89097 -0.0369231 -0.513476 5.53601 -0.0283379 -8.55369 10.5584 2.37335 9.84133 13.3736 0.117987 66.9496 -2.49257 -2.28787 110.014 21.5969 3.77946 1.99454e-006 5.27344e-006 3.92277e-006 6.94313 12.5649 -1.7585 -8.23087e-007 5.68698e-006 -3.00746 8.02925 -4.95142 0.697663 -65.9314 -4.79308 3.4307 -106.591 20.6253 2.0742 2.16968e-006 3.28232e-006 -1.20269e-006 -11.1997 12.478 1.97536 7.29884e-006 -4.19779e-006 2.99999 -8.02887 -4.95143 -0.697672 173.747 -6.23046 5.22691 180 7.015e-015 178.735 178.639 7.49316 179.608 1.58977e-007 3.62128e-006 0.145171 -19.5319 68.8201 20.2515 8.13649 25.2327 -3.48774 -175.296 -3.23386 -1.54932 4.5067e-006 -1.99009e-005 -1.21917 -2.10613 -6.32959 0.0226907 -3.50878e-006 -6.58044e-007 -0.0790225 18.8282 68.0054 -19.5468 -8.1365 25.2327 3.48774 
